# xmcd
#
# Track frame offsets: 
#        150
#        17235
#        25080
#        44642
#        65833
#        82114
#        101220
#        119086
#        131671
#        141677
#
# Disc length: 2158 seconds
#
# Revision: 1
# Processed by: cddbd v1.5.2PL0 Copyright (c) Steve Scherf et al.
# Submitted via: ExactAudioCopy v1.3
#
DISCID=a2086c0a
DTITLE=Various Artist - Influences: Avril Lavigne
DYEAR=2007
DGENRE=Country
TTITLE0=Blink-182 - Anthem Part Two
TTITLE1=The Distillers - Sing Sing Death Hour
TTITLE2=Marilyn Manson - This is the New *hit
TTITLE3=Alanis Morissette - All I Really Want
TTITLE4=Goo Goo Dolls - Iris
TTITLE5=The Cranberries - Dreams
TTITLE6=Chumbawamba - Tub Thumping
TTITLE7=The Archies - Sugar Sugar
TTITLE8=The Beach Boys - I Get Around
TTITLE9=Janis Joplin - Me and Bobby McGee
EXTD=
EXTT0=
EXTT1=
EXTT2=
EXTT3=
EXTT4=
EXTT5=
EXTT6=
EXTT7=
EXTT8=
EXTT9=
PLAYORDER=
